<svg width="178" height="159" viewBox="0 0 178 159" fill="none" xmlns="http://www.w3.org/2000/svg">
<g clip-path="url(#clip0_610_8789)">
<path d="M21.7968 58.5093C22.1998 49.5161 24.7356 40.8127 30.3372 32.7921C51.4042 2.62801 103.971 3.22382 133.007 20.0775C141.725 25.1382 149.215 32.916 152.195 42.5561C154.601 50.3423 153.948 58.6907 153.879 66.8434C153.801 76.0354 155.709 82.8466 159.384 91.0838C162.326 97.6767 162.924 105.522 161.703 112.582C159.054 127.902 147.826 140.329 134.376 147.399C113 158.635 79.1388 158.879 53.1237 152.528C39.9756 149.317 27.4298 142.776 21.0688 133.537C16.0075 126.186 15.2464 117.763 16.894 109.998C18.2186 103.756 21.3222 98.1706 23.921 92.2797C26.004 87.5577 25.1418 83.4613 23.92 78.3383C22.3308 71.6759 21.5052 65.0166 21.7968 58.5093Z" fill="#F9F4D4"/>
<path d="M29.064 23.8603C30.2273 23.8603 31.1704 22.9197 31.1704 21.7594C31.1704 20.5991 30.2273 19.6584 29.064 19.6584C27.9006 19.6584 26.9575 20.5991 26.9575 21.7594C26.9575 22.9197 27.9006 23.8603 29.064 23.8603Z" stroke="#F9F4D4" stroke-miterlimit="10"/>
<path d="M21.0786 34.4421C21.0786 36.0814 20.8037 37.4104 20.4648 37.4104C20.1259 37.4104 19.8511 36.0814 19.8511 34.4421C19.8511 32.8027 20.1259 31.4737 20.4648 31.4737C20.8041 31.4737 21.0786 32.8027 21.0786 34.4421Z" fill="#61A49A"/>
<path d="M20.4654 33.8299C22.1091 33.8299 23.4416 34.104 23.4416 34.442C23.4416 34.7801 22.1091 35.0542 20.4654 35.0542C18.8218 35.0542 17.4893 34.7801 17.4893 34.442C17.4889 34.104 18.8214 33.8299 20.4654 33.8299Z" fill="#61A49A"/>
<path d="M156.596 31.123C156.596 33.0194 156.278 34.5569 155.886 34.5569C155.494 34.5569 155.176 33.0194 155.176 31.123C155.176 29.2266 155.494 27.6891 155.886 27.6891C156.278 27.6891 156.596 29.2266 156.596 31.123Z" fill="#FFA506"/>
<path d="M155.886 30.415C157.788 30.415 159.329 30.7321 159.329 31.123C159.329 31.5139 157.788 31.831 155.886 31.831C153.985 31.831 152.443 31.5139 152.443 31.123C152.443 30.7321 153.985 30.415 155.886 30.415Z" fill="#FFA506"/>
<path d="M69.085 4.19172L67.3204 4.76089L65.5557 5.33006L65.9437 3.52099L66.3317 1.71228L67.7084 2.95182L69.085 4.19172Z" stroke="#61A49A" stroke-width="0.717" stroke-miterlimit="10"/>
<path d="M160.483 52.7894L158.63 51.2235L156.778 49.6577L159.064 48.8403L161.35 48.0233L160.917 50.4065L160.483 52.7894Z" fill="#61A49A"/>
<path d="M119.367 8.50613C119.367 9.28337 118.736 9.91326 117.956 9.91326C117.177 9.91326 116.545 9.28337 116.545 8.50613C116.545 7.72889 117.177 7.099 117.956 7.099C118.736 7.09864 119.367 7.72889 119.367 8.50613Z" fill="#F9F4D4"/>
<path d="M134.926 133.954C134.926 133.954 128.08 122.011 153.084 82.8782" stroke="#FFA506" stroke-width="1.9222" stroke-miterlimit="10"/>
<path d="M147.37 82.0083C150.343 87.1362 148.174 91.3899 148.174 91.3899C148.174 91.3899 144.551 88.2717 145.357 82.4028C145.498 81.3738 146.849 81.1093 147.37 82.0083Z" fill="#FFA506"/>
<path d="M156.99 88.0218C151.067 87.5882 148.174 91.3899 148.174 91.3899C148.174 91.3899 152.567 93.2824 157.511 90.0013C158.378 89.426 158.028 88.0981 156.99 88.0218Z" fill="#FFA506"/>
<path d="M141.011 92.0017C144.486 96.8058 142.756 101.255 142.756 101.255C142.756 101.255 138.837 98.5161 139.048 92.5965C139.085 91.5582 140.402 91.1595 141.011 92.0017Z" fill="#FFA506"/>
<path d="M151.188 97.021C145.252 97.1832 142.756 101.256 142.756 101.256C142.756 101.256 147.318 102.698 151.907 98.938C152.711 98.2786 152.229 96.9926 151.188 97.021Z" fill="#FFA506"/>
<path d="M136.133 100.987C139.955 105.522 138.56 110.087 138.56 110.087C138.56 110.087 134.448 107.645 134.219 101.725C134.179 100.687 135.463 100.192 136.133 100.987Z" fill="#FFA506"/>
<path d="M146.655 105.241C140.746 105.842 138.56 110.087 138.56 110.087C138.56 110.087 143.216 111.189 147.513 107.1C148.266 106.384 147.69 105.137 146.655 105.241Z" fill="#FFA506"/>
<path d="M159.014 76.5069C157.303 82.1795 152.71 83.5156 152.71 83.5156C152.71 83.5156 152.507 78.7474 157.347 75.3139C158.195 74.7117 159.314 75.512 159.014 76.5069Z" fill="#FFA506"/>
<path d="M134.948 128.71C134.948 128.71 156.962 125.878 154.791 121.104C152.62 116.331 145.966 120.434 151.779 113.024C157.592 105.615 173.969 95.4359 166.886 90.5683C159.802 85.701 134.518 110.606 134.948 128.71Z" fill="#61A49A"/>
<g opacity="0.59">
<path d="M166.885 90.5682C165.347 91.8653 163.834 93.1893 162.349 94.5429C160.855 95.8875 159.382 97.2556 157.937 98.6506C155.045 101.439 152.213 104.292 149.543 107.29C148.193 108.776 146.882 110.297 145.619 111.855C144.979 112.629 144.371 113.426 143.755 114.218C143.16 115.025 142.549 115.82 141.975 116.643C140.811 118.276 139.709 119.955 138.721 121.7C137.717 123.435 136.819 125.234 136.064 127.097C137.424 123.31 139.435 119.777 141.715 116.463C142.843 114.794 144.066 113.191 145.327 111.621C146.586 110.049 147.891 108.514 149.237 107.017C151.942 104.032 154.776 101.168 157.72 98.4223C160.67 95.6848 163.706 93.0356 166.885 90.5682Z" fill="#305866"/>
</g>
<path d="M167.082 97.3955C164.511 98.1007 159.302 99.8909 155.886 103.507C152.866 106.705 153.74 108.736 154.743 109.777C158.837 105.72 164.413 101.246 167.082 97.3955Z" fill="#407C72"/>
<path d="M142.511 108.106C148.084 108.243 148.932 102.876 148.992 100.063C146.702 102.485 144.483 105.214 142.511 108.106Z" fill="#407C72"/>
<path d="M154.341 123.063C150.703 121.346 141.909 118.161 141.948 127.532C146.721 126.572 152.493 125.051 154.341 123.063Z" fill="#407C72"/>
<path d="M165.234 82.2828C165.234 83.3409 164.374 84.1991 163.313 84.1991C162.252 84.1991 161.392 83.3412 161.392 82.2828C161.392 81.2247 162.252 80.3665 163.313 80.3665C164.374 80.3668 165.234 81.2247 165.234 82.2828Z" fill="#61A49A"/>
<path d="M156.595 115.196C156.595 115.196 159.307 105.342 170.03 106.705C168.297 112.394 161.782 115.234 156.595 115.196Z" fill="#61A49A"/>
<path d="M170.03 106.705C170.03 106.705 162.589 109.203 156.595 115.196C161.782 115.234 168.297 112.393 170.03 106.705Z" fill="#407C72"/>
<path d="M170.03 106.705C169.313 107.026 168.598 107.349 167.899 107.706C167.193 108.047 166.497 108.406 165.809 108.78C164.433 109.526 163.078 110.309 161.775 111.173C160.459 112.017 159.213 112.96 157.996 113.939L157.105 114.7C156.805 114.951 156.539 115.238 156.252 115.504C155.66 116.02 155.166 116.627 154.611 117.186C155.55 115.928 156.62 114.76 157.799 113.711C158.981 112.668 160.237 111.704 161.561 110.846C162.893 110.002 164.256 109.207 165.671 108.513C167.087 107.823 168.534 107.192 170.03 106.705Z" fill="#305866"/>
<path d="M43.0756 133.954C43.0756 133.954 49.9208 122.011 24.9175 82.8782" stroke="#FFA506" stroke-width="1.9222" stroke-miterlimit="10"/>
<path d="M30.6314 82.0083C27.6584 87.1362 29.8279 91.3899 29.8279 91.3899C29.8279 91.3899 33.4506 88.2717 32.6449 82.4028C32.5032 81.3738 31.1526 81.1093 30.6314 82.0083Z" fill="#FFA506"/>
<path d="M21.0119 88.0218C26.935 87.5882 29.8279 91.3899 29.8279 91.3899C29.8279 91.3899 25.4352 93.2824 20.4903 90.0013C19.6235 89.426 19.9734 88.0981 21.0119 88.0218Z" fill="#FFA506"/>
<path d="M36.9903 92.0017C33.5157 96.8058 35.2455 101.255 35.2455 101.255C35.2455 101.255 39.164 98.5161 38.9536 92.5965C38.9166 91.5582 37.5994 91.1595 36.9903 92.0017Z" fill="#FFA506"/>
<path d="M26.8135 97.021C32.7502 97.1832 35.2454 101.256 35.2454 101.256C35.2454 101.256 30.6839 102.698 26.0951 98.938C25.2905 98.2786 25.7726 96.9926 26.8135 97.021Z" fill="#FFA506"/>
<path d="M41.8683 100.987C38.0467 105.522 39.4418 110.087 39.4418 110.087C39.4418 110.087 43.5529 107.645 43.7822 101.725C43.8224 100.687 42.5383 100.192 41.8683 100.987Z" fill="#FFA506"/>
<path d="M31.3469 105.241C37.2555 105.842 39.4416 110.087 39.4416 110.087C39.4416 110.087 34.7859 111.189 30.4886 107.1C29.7349 106.384 30.311 105.137 31.3469 105.241Z" fill="#FFA506"/>
<path d="M18.9877 76.5069C20.6983 82.1795 25.2918 83.5156 25.2918 83.5156C25.2918 83.5156 25.4943 78.7474 20.6549 75.3139C19.8065 74.7117 18.688 75.512 18.9877 76.5069Z" fill="#FFA506"/>
<path d="M43.0539 128.71C43.0539 128.71 21.0396 125.878 23.2109 121.104C25.3821 116.331 32.0354 120.434 26.2226 113.024C20.4098 105.615 4.03278 95.4359 11.1161 90.5683C18.1998 85.701 43.4836 110.606 43.0539 128.71Z" fill="#61A49A"/>
<g opacity="0.59">
<path d="M11.1167 90.5682C14.2965 93.0352 17.3317 95.6844 20.2819 98.4227C23.226 101.168 26.0605 104.032 28.7647 107.017C30.1111 108.514 31.4158 110.049 32.6746 111.622C33.9356 113.191 35.1585 114.794 36.2866 116.463C38.5675 119.777 40.5782 123.31 41.9381 127.097C41.1838 125.234 40.2856 123.436 39.2813 121.7C38.2934 119.955 37.1909 118.276 36.0271 116.643C35.4536 115.821 34.8416 115.026 34.2474 114.218C33.6312 113.426 33.0224 112.629 32.3834 111.856C31.12 110.297 29.8092 108.776 28.4592 107.291C25.7889 104.293 22.9573 101.44 20.0655 98.651C18.6194 97.2559 17.1473 95.8882 15.6536 94.5432C14.1673 93.1897 12.6543 91.8653 11.1167 90.5682Z" fill="#305866"/>
</g>
<path d="M10.9194 97.3955C13.4912 98.1007 18.7002 99.8909 22.116 103.507C25.1359 106.705 24.2616 108.736 23.2591 109.777C19.1647 105.72 13.5887 101.246 10.9194 97.3955Z" fill="#407C72"/>
<path d="M35.4904 108.106C29.9176 108.243 29.0703 102.876 29.0098 100.063C31.3003 102.485 33.5185 105.214 35.4904 108.106Z" fill="#407C72"/>
<path d="M23.6616 123.063C27.2989 121.346 36.0939 118.161 36.054 127.532C31.2818 126.572 25.5085 125.051 23.6616 123.063Z" fill="#407C72"/>
<path d="M14.6884 84.1991C15.7495 84.1991 16.6098 83.3411 16.6098 82.2828C16.6098 81.2244 15.7495 80.3665 14.6884 80.3665C13.6273 80.3665 12.7671 81.2244 12.7671 82.2828C12.7671 83.3411 13.6273 84.1991 14.6884 84.1991Z" fill="#FFA506"/>
<path d="M21.4061 115.196C21.4061 115.196 18.6941 105.342 7.9707 106.705C9.70371 112.394 16.2192 115.234 21.4061 115.196Z" fill="#61A49A"/>
<path d="M7.9707 106.705C7.9707 106.705 15.4115 109.203 21.4061 115.196C16.2192 115.234 9.70371 112.394 7.9707 106.705Z" fill="#407C72"/>
<path d="M7.9707 106.705C9.46733 107.193 10.9145 107.823 12.3299 108.513C13.745 109.207 15.1085 110.002 16.4403 110.847C17.7643 111.704 19.0199 112.668 20.2022 113.711C21.3809 114.76 22.4503 115.928 23.3898 117.186C22.8351 116.627 22.341 116.02 21.749 115.504C21.462 115.238 21.1965 114.951 20.8956 114.7L20.0049 113.939C18.7885 112.96 17.5421 112.017 16.2256 111.174C14.9234 110.309 13.5684 109.526 12.1922 108.78C11.504 108.407 10.8077 108.047 10.1021 107.706C9.40325 107.349 8.6884 107.026 7.9707 106.705Z" fill="#305866"/>
<path d="M120.15 45.9565C120.15 45.9565 116.699 46.5744 110.505 54.4512C104.311 62.328 89.4448 83.7418 89.4448 83.7418L99.3555 86.2674L114.686 66.1119C114.686 66.1119 121.743 47.81 120.15 45.9565Z" fill="#893622"/>
<path d="M99.3561 86.2673L90.4732 84.0034L90.0713 82.842C91.6249 80.6115 95.857 74.5515 100.281 68.3535C100.953 71.4251 102.688 74.6296 106.624 76.7117L99.3561 86.2673Z" fill="#6D2517"/>
<path d="M140.547 102.793C140.547 102.793 145.657 129.796 141.321 148.484C126.3 148.484 93.1616 148.484 93.1616 148.484L105.705 101.306L140.547 102.793Z" fill="#FFA506"/>
<path d="M124.442 104.262C124.93 106.101 125.561 107.888 126.305 109.618C127.054 111.345 127.944 113.006 129.007 114.545C130.072 116.079 131.325 117.484 132.79 118.645C133.515 119.236 134.312 119.733 135.136 120.184C135.96 120.644 136.846 120.978 137.744 121.304C136.808 121.13 135.873 120.879 134.987 120.497C134.107 120.109 133.24 119.66 132.459 119.085C131.669 118.526 130.93 117.89 130.26 117.191C129.593 116.489 128.982 115.735 128.425 114.946C127.338 113.348 126.452 111.624 125.794 109.821C125.134 108.023 124.643 106.159 124.442 104.262Z" fill="#A36307"/>
<path d="M135.069 102.056C135.069 102.056 141.515 128.56 135.069 148.484" stroke="#A36307" stroke-width="1.9885" stroke-miterlimit="10"/>
<path d="M112.983 102.175C112.678 104.048 112.456 105.922 112.307 107.798C112.242 108.736 112.181 109.674 112.165 110.612C112.139 111.55 112.14 112.488 112.189 113.423C112.223 114.357 112.295 115.291 112.423 116.216C112.539 117.142 112.704 118.063 112.93 118.968C113.163 119.87 113.429 120.769 113.798 121.63C114.159 122.495 114.601 123.325 115.112 124.127C114.476 123.421 113.941 122.621 113.484 121.778C113.031 120.931 112.684 120.031 112.398 119.115C111.831 117.278 111.567 115.362 111.482 113.453C111.403 111.541 111.51 109.629 111.76 107.74C112.014 105.854 112.393 103.982 112.983 102.175Z" fill="#A36307"/>
<path d="M117.63 101.815C117.327 105.719 116.979 109.619 116.587 113.513C116.204 117.409 115.78 121.299 115.348 125.189C114.903 129.077 114.449 132.965 113.954 136.848C113.469 140.732 112.939 144.611 112.363 148.484C112.666 144.58 113.012 140.68 113.405 136.786C113.788 132.891 114.212 129 114.645 125.11C115.091 121.222 115.544 117.334 116.04 113.451C116.525 109.568 117.055 105.689 117.63 101.815Z" fill="#A36307"/>
<path opacity="0.46" d="M127.406 108.674C117.006 108.862 109.031 106.645 104.706 105.062L105.438 102.308L108.563 101.428L140.547 102.793C140.547 102.793 145.657 129.795 141.321 148.484C138.416 148.484 134.833 148.484 130.944 148.484C134.192 134.355 140.531 108.437 127.406 108.674Z" fill="#4F2222"/>
<path d="M130.791 44.5164L139.308 48.7367C139.308 48.7367 133.269 85.8043 140.547 102.793C127.694 107.272 113.448 107.386 105.705 101.306C112.209 84.8772 114.532 77.7056 114.532 77.7056C114.532 77.7056 109.886 73.264 110.506 68.3364C111.125 63.4088 120.15 45.9562 120.15 45.9562L130.791 44.5164Z" fill="#61A49A"/>
<path d="M33.7703 118.292L33.3887 148.484H75.6249L71.7751 118.292H33.7703Z" fill="#305866"/>
<path d="M55.7996 119.911C55.926 121.442 55.5735 123.013 54.8847 124.418C54.5433 125.125 54.0915 125.78 53.5739 126.376C53.0506 126.968 52.4461 127.486 51.7999 127.937C51.1499 128.387 50.4397 128.736 49.717 129.036L49.1666 129.241C48.9826 129.307 48.7935 129.357 48.6073 129.415C48.2367 129.539 47.8537 129.613 47.4742 129.697C45.9516 130.014 44.3951 130.076 42.8672 129.952C44.3912 129.782 45.8978 129.566 47.3457 129.161C48.7882 128.754 50.1862 128.194 51.4012 127.355C52.6227 126.531 53.6554 125.441 54.4002 124.159C55.1382 122.877 55.6319 121.429 55.7996 119.911Z" fill="#61A49A"/>
<path d="M43.3896 119.448L41.9438 148.484" stroke="#61A49A" stroke-width="1.9885" stroke-miterlimit="10"/>
<path d="M66.9916 117.903C67.1792 119.664 67.2358 121.434 67.224 123.204C67.2144 124.974 67.1162 126.744 66.9253 128.509C66.7199 130.27 66.439 132.035 65.9175 133.747C65.6583 134.602 65.3404 135.446 64.9036 136.235C64.4636 137.008 63.8766 137.772 63.0542 138.139C63.7915 137.634 64.2479 136.869 64.5925 136.08C64.9403 135.287 65.1774 134.447 65.3842 133.603C65.5822 132.756 65.753 131.899 65.8787 131.034C66.0168 130.171 66.1329 129.303 66.2219 128.431C66.3273 127.561 66.4045 126.687 66.4757 125.812C66.5569 124.938 66.6096 124.061 66.6737 123.183L66.9916 117.903Z" fill="#61A49A"/>
<path d="M62.0361 118.292C62.3017 120.8 62.5224 123.312 62.6979 125.826C62.8834 128.339 63.0275 130.854 63.1635 133.37C63.2864 135.886 63.4003 138.403 63.4733 140.922C63.5562 143.44 63.5929 145.961 63.5847 148.484C63.3184 145.975 63.097 143.464 62.9218 140.95C62.7367 138.437 62.5925 135.921 62.4572 133.406C62.3351 130.889 62.2212 128.373 62.1486 125.854C62.066 123.335 62.0286 120.815 62.0361 118.292Z" fill="#61A49A"/>
<path d="M68.2303 119.448C68.4168 120.353 68.6062 121.242 68.8234 122.118C69.0495 122.991 69.2915 123.856 69.624 124.677C69.9434 125.502 70.3503 126.288 70.8967 126.961C71.4403 127.639 72.1755 128.147 73.0666 128.421C72.136 128.448 71.1716 128.023 70.492 127.336C70.1399 127.004 69.8544 126.612 69.5959 126.211C69.3471 125.802 69.1466 125.372 68.9661 124.936C68.6258 124.055 68.4037 123.142 68.283 122.22C68.163 121.3 68.1242 120.369 68.2303 119.448Z" fill="#61A49A"/>
<path opacity="0.46" d="M33.7407 120.617L33.7703 118.292H71.775L72.2083 121.689C68.392 123.107 55.021 126.908 33.7407 120.617Z" fill="#0A1F3E"/>
<path d="M61.2617 42.533C61.2617 42.533 68.0752 43.1508 74.2692 54.4256C80.4633 65.7 87.2768 85.7784 87.2768 85.7784L73.3401 88.0952L64.5134 66.3182L61.2617 42.533Z" fill="#C4714D"/>
<path d="M61.2617 42.533C61.2617 42.533 68.0752 43.1508 74.2692 54.4252C75.9015 57.3964 77.5768 60.9791 79.1589 64.6441C75.3276 64.9296 69.1952 66.1631 66.3906 70.9494L64.5134 66.3175L61.2617 42.533Z" fill="#FFA506"/>
<path d="M66.3913 70.9497L64.5142 66.3179L64.3906 65.4153C68.1005 62.4089 73.9264 60.8076 77.1262 60.112C77.8136 61.583 78.495 63.1049 79.1596 64.6444C75.3284 64.9299 69.1959 66.1631 66.3913 70.9497Z" fill="#F9F4D4"/>
<path d="M44.6924 41.2973L31.0654 48.0929V117.285C31.0654 117.285 52.1253 126.398 73.3404 118.984C68.0752 59.2129 61.2617 42.5326 61.2617 42.5326L44.6924 41.2973Z" fill="#FFA506"/>
<path d="M106.442 99.4382C106.845 98.4142 107.23 97.4303 107.598 96.4837C118.428 98.2264 135.153 97.3206 138.734 97.098C138.969 98.1007 139.231 99.0689 139.522 99.996C126.393 103.377 110.926 100.433 106.442 99.4382Z" fill="#F9F4D4"/>
<path opacity="0.35" d="M31.0654 77.7908V66.5593L69.8167 86.1796C70.8666 94.2223 71.925 103.608 72.9357 114.513C64.7818 115.168 55.126 114.244 55.126 114.244L54.1389 98.5974L31.0654 77.7908Z" fill="#A36307"/>
<path d="M58.2471 111.725H100.595V78.5192H58.2471L58.2471 111.725Z" fill="#B56A2D"/>
<path d="M31.0654 117.285V112.558C48.7793 119.522 66.1884 116.646 72.9844 115.044C73.1037 116.339 73.2226 117.647 73.3404 118.984C52.1253 126.398 31.0654 117.285 31.0654 117.285Z" fill="#F9F4D4"/>
<path opacity="0.35" d="M60.8748 51.0276C60.8748 51.0276 57.653 73.1522 48.3468 78.1331C46.125 74.8895 46.125 74.8895 46.125 74.8895C46.125 74.8895 56.8096 66.3179 60.8748 51.0276Z" fill="#A36307"/>
<path d="M100.595 111.725H107.718V78.5192H100.595V111.725Z" fill="#773D15"/>
<path d="M36.4077 45.4289L44.6925 41.2973L60.1764 42.452C57.7941 46.7323 51.1013 54.4533 36.4077 45.4289Z" fill="#F9F4D4"/>
<path d="M38.5908 44.3402L44.6927 41.2973L57.8166 42.2759C55.771 45.3078 50.206 50.6345 38.5908 44.3402Z" fill="#C4714D"/>
<path d="M117.458 51.3351H138.926C138.802 52.2288 138.656 53.3306 138.502 54.6031H115.888C116.43 53.4548 116.963 52.3492 117.458 51.3351Z" fill="#F9F4D4"/>
<path d="M79.4676 103.533C84.1765 103.533 87.9938 99.7259 87.9938 95.0293C87.9938 90.3328 84.1765 86.5255 79.4676 86.5255C74.7587 86.5255 70.9414 90.3328 70.9414 95.0293C70.9414 99.7259 74.7587 103.533 79.4676 103.533Z" fill="#F9F4D4"/>
<path d="M81.506 88.7507H77.4287V101.788H81.506V88.7507Z" fill="#61A49A"/>
<path d="M86.0034 97.3026V93.236H72.9315V97.3026H86.0034Z" fill="#61A49A"/>
<path d="M137.85 60.6286C137.751 61.6732 137.655 62.7658 137.565 63.8966H111.83C112.218 62.8755 112.671 61.7712 113.159 60.6286H137.85Z" fill="#F9F4D4"/>
<path d="M137.172 69.9222C137.118 70.9959 137.073 72.087 137.038 73.1902H111.379C110.926 72.1932 110.58 71.085 110.48 69.9222H137.172Z" fill="#F9F4D4"/>
<path d="M112.868 82.4837C113.374 81.0755 113.754 79.9919 114.022 79.2157H136.962C136.97 80.3058 136.991 81.3969 137.027 82.4837H112.868Z" fill="#F9F4D4"/>
<path d="M109.413 91.7773C109.858 90.6112 110.27 89.5226 110.65 88.5092H137.398C137.5 89.6163 137.624 90.7074 137.769 91.7773H109.413Z" fill="#F9F4D4"/>
<path d="M58.2471 98.6745C58.2471 98.6745 72.0243 108.018 73.9602 109.409C75.8958 110.799 76.6701 111.725 76.6701 111.725H81.1607L69.7039 98.52L58.2471 96.0793V98.6745Z" fill="#773D15"/>
<path d="M36.4077 76.0478L37.9371 114.799" stroke="#A36307" stroke-width="0.9943" stroke-miterlimit="10"/>
<path d="M31.0656 48.093C31.0656 48.093 17.7483 54.1163 23.7875 65.8545C29.8267 77.5927 77.2117 109.409 77.2117 109.409C77.2117 109.409 80.1541 112.807 82.012 113.734C83.8703 114.66 85.1299 114.042 86.126 114.042C87.1221 114.042 91.1484 114.197 91.7678 112.189C92.0776 111.571 92.0776 111.571 92.0776 111.571H88.9134L86.126 108.791C86.126 108.791 87.8963 109.1 89.5998 108.637C91.3033 108.174 90.529 107.092 87.8963 106.011C85.2637 104.93 80.7731 104.003 80.7731 104.003C80.7731 104.003 64.5136 86.0873 61.2615 82.5352C58.0101 78.9824 35.2464 50.1009 31.0656 48.093Z" fill="#C4714D"/>
<path d="M31.0656 48.093C33.5319 49.2775 42.464 59.8127 50.0432 68.9841C46.2871 69.7979 39.3045 72.4694 38.7918 81.1054C31.5658 75.1189 25.6693 69.512 23.7875 65.8545C17.7483 54.1163 31.0656 48.093 31.0656 48.093Z" fill="#FFA506"/>
<path d="M38.7919 81.1054C37.0251 79.6418 35.3387 78.2013 33.7705 76.8058C34.9122 67.9757 41.8489 64.9217 45.8051 63.8906C47.2312 65.5907 48.6599 67.3099 50.0433 68.9841C46.2871 69.7979 39.3045 72.4694 38.7919 81.1054Z" fill="#F9F4D4"/>
<path opacity="0.19" d="M46.7831 82.5349C50.8455 82.5349 54.1388 85.8196 54.1388 89.8713C54.1388 90.8548 53.9416 91.7915 53.5895 92.6486C49.839 89.856 46.0007 86.921 42.3677 84.0141C43.598 83.0895 45.1238 82.5349 46.7831 82.5349Z" fill="#6D450B"/>
<path d="M36.6187 53.306C37.8764 54.4941 39.0676 55.739 40.2356 57.0034C41.4079 58.2642 42.5411 59.5584 43.6664 60.8594C44.7792 62.171 45.8836 63.4897 46.9491 64.8415C48.0185 66.19 49.0644 67.5584 50.0434 68.984C48.785 67.7967 47.5931 66.5522 46.4254 65.2878C45.2534 64.0266 44.1203 62.7324 42.9957 61.431C41.8835 60.1187 40.7792 58.8 39.7141 57.4482C38.6443 56.0993 37.5984 54.7309 36.6187 53.306Z" fill="#A36307"/>
<path d="M39.5049 52.9968C39.6679 53.3203 39.743 53.6381 39.7918 53.9544C39.837 54.2705 39.8477 54.5843 39.8288 54.8964C39.8103 55.2085 39.7608 55.5189 39.6768 55.8267C39.5896 56.1346 39.4753 56.4406 39.2724 56.7414C39.1083 56.4179 39.0328 56.1001 38.984 55.7838C38.9388 55.4677 38.9281 55.1539 38.9481 54.8418C38.968 54.5297 39.0175 54.2197 39.1015 53.9115C39.1894 53.6036 39.3034 53.2976 39.5049 52.9968Z" fill="#A36307"/>
<path d="M39.7372 45.9306C39.7372 45.9306 28.5877 50.5639 26.8458 54.6184C25.1035 58.6726 29.4008 68.4028 37.5307 74.4262" stroke="#F9F4D4" stroke-width="0.9878" stroke-miterlimit="10"/>
<path d="M58.7847 43.1505C58.7847 43.1505 68.0759 43.7711 75.8574 61.1449" stroke="#F9F4D4" stroke-width="0.9878" stroke-miterlimit="10"/>
<path d="M67.3002 69.6509C66.8776 68.2217 66.5409 66.7787 66.2343 65.3308C65.9225 63.8835 65.6615 62.4281 65.4102 60.9713C65.1752 59.5116 64.9517 58.0501 64.7783 56.5801C64.5996 55.1109 64.4519 53.6366 64.3906 52.1478C64.8143 53.5763 65.1514 55.0193 65.4576 56.4672C65.7694 57.9145 66.0304 59.3699 66.2803 60.8274C66.5142 62.2875 66.7381 63.7493 66.9111 65.2193C67.0898 66.6889 67.2379 68.1628 67.3002 69.6509Z" fill="#A36307"/>
<path d="M121.19 59.1647C117.682 58.9026 119.389 50.173 121.452 45.7801L130.493 44.1748L136.471 47.3306C134.767 50.3832 128.758 60.0133 121.19 59.1647Z" fill="#893622"/>
<path d="M121.19 59.1647C121.389 58.4805 121.684 57.8463 122.001 57.2235C122.329 56.6061 122.679 56.0003 123.126 55.4446C122.928 56.1292 122.634 56.7637 122.315 57.3858C121.987 58.0033 121.637 58.609 121.19 59.1647Z" fill="#590A06"/>
<path d="M136.471 47.331C134.767 50.3831 128.758 60.0133 121.19 59.1647C117.682 58.9026 119.389 50.1729 121.452 45.78" stroke="#F9F4D4" stroke-width="0.9878" stroke-miterlimit="10"/>
<path opacity="0.36" d="M109.146 103.415L127.82 81.5939L137.002 74.4911C136.918 78.0198 136.945 81.6433 137.148 85.1755C135.139 88.1123 132.076 92.2708 129.484 94.4275C126.09 97.2524 118.546 103.143 115.596 105.44C113.258 105.011 111.086 104.34 109.146 103.415Z" fill="#B74025"/>
<path d="M139.308 48.7363C139.308 48.7363 145.193 51.8254 146.896 55.8409C148.6 59.8563 145.967 66.7258 141.631 73.5619C137.296 80.3981 131.68 89.356 129.223 91.8273C126.765 94.2986 106.48 108.674 106.48 108.674C106.48 108.674 105.674 103.72 104.916 102.175C123.823 82.7145 123.823 82.7145 123.823 82.7145L131.411 67.3855C131.411 67.3855 130.327 54.6056 139.308 48.7363Z" fill="#893622"/>
<path d="M129.222 91.8273C128.942 92.1096 128.427 92.5484 127.738 93.1016C127.21 92.2349 126.9 91.2212 126.9 90.1329C126.9 86.9661 129.474 84.3989 132.649 84.3989C133.289 84.3989 133.903 84.5076 134.477 84.7C132.323 87.9393 130.406 90.6367 129.222 91.8273Z" fill="#6D2517"/>
<path d="M104.915 102.175C104.915 102.175 101.888 102.269 99.6655 102.716C98.2664 102.997 96.4562 102.893 95.3223 103.41C93.9051 104.056 94.7876 105.554 97.4587 105.206C98.6199 105.206 99.317 105.959 98.1553 106.249C96.9941 106.538 92.9289 107.914 92.5227 108.674C92.1162 109.434 93.2194 110.477 94.4971 110.129C95.7748 109.782 98.9684 109.26 98.9684 109.26C98.9684 109.26 96.0649 110.708 95.0777 111.056C94.0905 111.404 95.1938 113.141 96.5875 112.794C97.9813 112.446 99.2006 112.272 99.2006 112.272C99.2006 112.272 99.7232 113.257 102.104 112.388C104.485 111.519 107.73 107.786 108.736 107.068C108.783 103.99 104.915 102.175 104.915 102.175Z" fill="#893622"/>
<path d="M99.2012 112.272C99.6312 111.897 100.111 111.619 100.602 111.362C101.098 111.116 101.606 110.893 102.163 110.767C101.733 111.142 101.254 111.421 100.762 111.677C100.266 111.922 99.758 112.145 99.2012 112.272Z" fill="#590A06"/>
<path d="M131.411 67.3859C131.895 66.076 132.476 64.8131 133.081 63.5615C133.695 62.3145 134.333 61.0795 135.069 59.8915C134.585 61.2017 134.004 62.4647 133.399 63.7159C132.784 64.9626 132.145 66.1978 131.411 67.3859Z" fill="#590A06"/>
<path d="M139.308 48.7363C139.308 48.7363 131.654 51.7544 131.421 66.8774" stroke="#F9F4D4" stroke-width="0.9878" stroke-miterlimit="10"/>
<path opacity="0.7" d="M114.531 77.7056C114.531 77.7056 118.294 78.7218 122.132 78.5506C125.668 78.3926 120.174 80.5369 113.471 80.7904C114.209 78.6998 114.531 77.7056 114.531 77.7056Z" fill="#61A49A"/>
<path d="M137.812 37.1956L138.157 40.927C140.439 40.2098 143.393 39.282 147.237 38.0744C147.111 17.0004 136.122 14.8867 136.122 14.8867C128.908 16.9241 130.479 43.339 130.479 43.339C130.479 43.339 130.485 43.3369 136.917 41.3162L137.812 37.1956Z" fill="#380703"/>
<path opacity="0.26" d="M138.405 19.2175C135.602 19.461 133.234 21.4278 131.263 24.1991C129.836 32.5226 130.479 43.339 130.479 43.339C130.479 43.339 130.486 43.3369 136.917 41.3162L137.812 37.1952L138.157 40.9267C138.768 40.7346 139.432 40.5258 140.144 40.3021C143.246 28.9815 138.405 19.2175 138.405 19.2175Z" fill="white"/>
<path d="M134.646 31.5479C134.646 31.5479 132.288 40.1093 133.24 47.7265C128.78 51.2446 125.029 48.1445 124.083 45.9196C125.468 42.2571 126.107 38.2494 126.107 38.2494L132.348 31.3899L134.646 31.5479Z" fill="#893622"/>
<path d="M124.801 43.7952C128.834 42.1584 130.982 37.4647 130.982 37.4647L125.987 38.9283C125.805 39.8923 125.416 41.7671 124.801 43.7952Z" fill="#590A06"/>
<path d="M124.29 13.9831C124.29 13.9831 132.82 12.0714 136.122 14.8871C139.424 17.7028 139.484 25.6179 137.108 29.8752C134.032 29.0379 133.188 28.6928 133.188 28.6928L124.29 13.9831Z" fill="#FFA506"/>
<path d="M122.66 17.7233C122.66 17.7233 119.238 18.4697 118.504 26.0394C117.769 33.609 116.74 43.4054 123.136 41.6165C129.532 39.8277 133.843 36.4087 135.47 28.5412C136.949 21.1188 133.369 14.5934 122.66 17.7233Z" fill="#893622"/>
<path d="M122.898 30.1894C123.196 29.796 123.592 29.4811 124.025 29.2332C124.459 28.9843 124.948 28.8214 125.452 28.7496C125.704 28.7092 125.96 28.7184 126.214 28.7216C126.466 28.7628 126.722 28.778 126.96 28.8697C127.449 29.0014 127.882 29.2758 128.255 29.5887C127.785 29.4356 127.344 29.2698 126.881 29.2112C126.425 29.1335 125.964 29.1253 125.513 29.1945C124.602 29.3114 123.735 29.6899 122.898 30.1894Z" fill="#541413"/>
<path opacity="0.15" d="M132.634 21.1601C130.394 19.0499 125.812 18.4427 121.485 18.4051C120.421 19.313 118.955 21.3859 118.504 26.0394C117.892 32.3475 117.079 40.1956 120.525 41.6034C135.784 37.5929 132.634 21.1601 132.634 21.1601Z" fill="white"/>
<path d="M123.266 26.4786C123.266 26.4786 126.314 24.5456 129.515 26.4708C129.587 24.9128 126.312 23.1356 123.266 26.4786Z" fill="#380703"/>
<path d="M136.129 20.4521C136.129 20.4521 137.11 25.967 135.362 29.0362C134.054 27.2814 131.619 22.629 131.739 20.2351C131.86 17.8409 136.129 20.4521 136.129 20.4521Z" fill="#380703"/>
<path d="M136.129 20.452C136.129 20.452 124.53 25.7351 115.525 23.8912C111.059 22.7096 118.355 14.4241 123.845 14.0115C129.871 13.5588 134.71 15.6306 136.129 20.452Z" fill="#380703"/>
<path d="M119.949 32.0237C119.983 32.5332 119.943 33.0289 119.889 33.5221C119.834 34.0153 119.746 34.5021 119.637 34.9853L119.324 34.7257C119.61 34.6317 119.899 34.5436 120.192 34.4697C120.487 34.3977 120.784 34.3327 121.093 34.2979C120.84 34.4779 120.575 34.6281 120.308 34.7712C120.04 34.9122 119.766 35.0393 119.491 35.1603L119.116 35.3247L119.178 34.9008C119.25 34.4108 119.342 33.9244 119.468 33.4447C119.595 32.9643 119.736 32.487 119.949 32.0237Z" fill="#541413"/>
<path d="M120.252 36.4258C120.944 36.0413 121.638 35.7345 122.327 35.4096C122.675 35.2559 123.014 35.0869 123.362 34.9296C123.708 34.7687 124.049 34.5976 124.416 34.4421C123.909 35.0556 123.227 35.4909 122.519 35.8244C122.161 35.9845 121.795 36.1269 121.415 36.2298C121.038 36.3342 120.651 36.4127 120.252 36.4258Z" fill="#541413"/>
<path d="M119.401 29.8968C119.112 29.943 118.896 29.8723 118.695 29.7733C118.501 29.6614 118.323 29.5208 118.204 29.2549C118.483 29.2027 118.705 29.2762 118.91 29.3788C119.108 29.4931 119.291 29.6369 119.401 29.8968Z" fill="#541413"/>
<path opacity="0.94" d="M130.514 32.4061C130.515 33.1162 129.315 33.6939 127.833 33.6957C126.351 33.6975 125.15 33.123 125.148 32.4128C125.147 31.7023 126.348 31.125 127.83 31.1232C129.312 31.1215 130.514 31.6956 130.514 32.4061Z" fill="#A52E00"/>
<path d="M138.573 32.7803C137.487 34.6629 135.518 35.564 134.176 34.7932C132.834 34.0227 132.626 31.8717 133.713 29.9895C134.799 28.1073 136.768 27.2058 138.111 27.9766C139.452 28.7471 139.66 30.8981 138.573 32.7803Z" fill="#893622"/>
<path d="M139.154 29.4267C137.82 28.8121 135.964 29.7104 134.92 31.5184C134.26 32.661 134.08 33.9006 134.339 34.8724C135.673 35.487 137.53 34.5887 138.573 32.7807C139.233 31.6381 139.413 30.3982 139.154 29.4267Z" fill="#6D2517"/>
<path opacity="0.26" d="M133.954 16.8233C131.663 14.6105 128.045 13.6962 123.845 14.0115C121.175 14.2121 118.081 16.2754 116.118 18.4775C119.564 18.5837 122.66 17.723 122.66 17.723C122.66 17.723 113.736 21.5929 120.729 21.1388C126.124 20.789 131.691 18.055 133.954 16.8233Z" fill="white"/>
<path d="M57.4888 19.6006C57.4888 19.6006 62.6081 17.2745 63.5764 13.6866C64.5451 10.0986 59.8754 12.3068 59.8754 12.3068C59.8754 12.3068 61.3628 8.37405 59.3913 7.2009C57.4198 6.02776 54.0299 10.3404 54.0299 10.3404C54.0299 10.3404 55.4482 7.65894 53.9263 6.99887C52.4044 6.33845 52.8195 8.75361 48.4265 10.1334C44.0334 11.5132 40.0559 12.6863 38.8796 14.9286C37.6689 13.1 36.9426 13.8055 37.4613 15.8503C35.2477 16.1358 34.7287 18.2403 36.9426 18.0333C36.0779 20.6207 37.8419 27.1063 40.1249 30.591C42.4079 34.0752 43.5493 35.1103 43.5493 35.1103L47.3542 30.2114L50.6817 21.5176L57.4888 19.6006Z" fill="#6B2A19"/>
<path d="M59.9819 12.2589C59.6957 12.8039 59.3233 13.2914 58.9186 13.7473C58.5138 14.2046 58.0642 14.6222 57.5797 15.001C57.0866 15.3678 56.5675 15.7076 55.9979 15.9572C55.4305 16.204 54.8192 16.3794 54.2026 16.3862C54.7608 16.1238 55.2692 15.8379 55.7658 15.5265C56.2564 15.2063 56.7313 14.864 57.1959 14.5054C57.6662 14.1531 58.1165 13.7711 58.5789 13.3972C59.0375 13.0176 59.4974 12.6359 59.9819 12.2589Z" fill="#351515"/>
<path d="M54.0301 10.3404C54.0504 11.0587 53.9073 11.7752 53.6791 12.4605C53.4509 13.1483 53.107 13.8002 52.6784 14.3949C52.5634 14.538 52.4577 14.6882 52.3338 14.8238L51.9536 15.2233C51.824 15.3532 51.672 15.4608 51.5328 15.5798L51.3192 15.753L51.0846 15.8986C50.4804 16.3172 49.7656 16.5445 49.0664 16.6705C49.6826 16.2963 50.285 15.9661 50.7937 15.5048C51.3081 15.0624 51.7838 14.5788 52.1721 14.0235C52.5769 13.4817 52.9198 12.8916 53.2266 12.2759C53.5271 11.6566 53.7934 11.0147 54.0301 10.3404Z" fill="#351515"/>
<path d="M51.548 8.49084C51.8093 9.3565 51.8236 10.2921 51.6833 11.195C51.5434 12.1008 51.2394 12.9874 50.7876 13.7924C50.3134 14.5803 49.7584 15.3302 49.0564 15.921L48.804 16.1518L48.5292 16.3556L47.9756 16.7522C47.59 16.9908 47.1856 17.1985 46.7837 17.3956C47.1116 17.0806 47.4626 16.8094 47.7865 16.509L48.2582 16.0463L48.4961 15.8201L48.7121 15.5737C48.8545 15.4086 48.9984 15.2456 49.1458 15.0869C49.2814 14.9179 49.4056 14.74 49.5356 14.5682L49.7328 14.3118L49.9047 14.0381C50.0155 13.8534 50.1429 13.6787 50.2401 13.487L50.5423 12.9175C50.6349 12.7236 50.7075 12.5209 50.7976 12.3252C50.9621 11.9275 51.0931 11.516 51.2056 11.0978C51.4245 10.2587 51.5502 9.38846 51.548 8.49084Z" fill="#351515"/>
<path d="M42.9271 28.0728L41.8467 43.1508C41.8467 43.1508 42.0695 43.0059 44.4209 45.7019C47.2757 48.9753 54.0671 46.5622 53.4929 42.2617L52.6808 36.1804L42.9271 28.0728Z" fill="#C4714D"/>
<path d="M53.3785 41.4035C49.213 39.8394 46.3169 35.5239 46.3169 35.5239L52.7662 36.8178C52.8523 37.4654 53.0268 38.7714 53.3785 41.4035Z" fill="#753835"/>
<path d="M42.9958 25.7787C42.9958 25.7787 42.4771 31.5745 44.2931 33.6964C46.109 35.8179 49.0663 37.5776 54.0471 38.095C59.0279 38.6123 58.5092 37.0081 58.7687 33.0235C59.0283 29.039 59.2874 17.5508 56.4857 16.3087C53.684 15.0667 45.9531 16.5676 44.9673 18.2236C43.9816 19.8797 43.9816 22.1049 44.2927 23.9161C44.6042 25.7269 42.9958 25.7787 42.9958 25.7787Z" fill="#C4714D"/>
<path d="M50.8523 24.2434C51.9819 24.2434 52.8976 25.0313 52.8976 26.0028C52.8976 26.0216 52.8951 26.0397 52.8944 26.0585C52.2664 26.2861 51.5765 26.4122 50.8523 26.4122C50.1282 26.4122 49.4383 26.2861 48.8103 26.0585C48.8096 26.04 48.8071 26.0216 48.8071 26.0028C48.8068 25.0313 49.7228 24.2434 50.8523 24.2434Z" fill="#EFEEE4"/>
<path d="M57.287 26.1093C57.2863 26.0933 57.2842 26.0777 57.2842 26.0617C57.2842 25.2888 57.9606 24.6528 58.8317 24.5655C58.8641 25.1787 58.8869 25.7958 58.9008 26.4065C58.3305 26.3916 57.7854 26.2897 57.287 26.1093Z" fill="#51200B"/>
<path d="M53.0271 24.5538C52.7117 24.3024 52.3635 24.0986 51.9968 23.9487C51.6298 23.8014 51.2389 23.7108 50.847 23.7179C50.4571 23.7155 50.0613 23.7854 49.7006 23.9491C49.5098 24.0077 49.3471 24.127 49.1684 24.2165C48.9965 24.318 48.8405 24.4448 48.6689 24.5541C48.817 24.4185 48.9651 24.2782 49.1253 24.1529C49.2991 24.0481 49.4589 23.9146 49.6511 23.8394C50.0157 23.6462 50.4361 23.5709 50.8477 23.5617C51.2617 23.5677 51.6743 23.6622 52.0449 23.8394C52.4141 24.0169 52.7548 24.2541 53.0271 24.5538Z" fill="#8C4A43"/>
<path d="M58.8072 24.1724C58.5804 24.1749 58.3351 24.2406 58.113 24.3351C57.8894 24.4331 57.6786 24.5662 57.4893 24.7263C57.6608 24.547 57.8584 24.3897 58.0781 24.2648C58.3009 24.1433 58.5352 24.0471 58.8047 24.0155L58.8072 24.1724Z" fill="#8C4A43"/>
<path d="M52.1106 19.9737C51.0818 19.9318 49.0455 20.0874 47.7692 21.7597C47.7361 20.3462 48.3944 18.3372 52.1683 18.4498C52.5681 18.4619 52.902 18.7803 52.9177 19.1791C52.9181 19.189 52.9184 19.1993 52.9188 19.2093C52.9291 19.6467 52.5492 19.9915 52.1106 19.9737Z" fill="#51200B"/>
<path d="M57.7612 20.3043C57.3553 20.321 57.0036 20.0015 57.0129 19.5963C57.0132 19.5871 57.0132 19.5779 57.0139 19.5683C57.0285 19.199 57.3375 18.9039 57.7078 18.8929C57.8331 18.8894 57.9463 18.8933 58.0641 18.8947C58.1845 19.3293 58.2881 19.8058 58.3792 20.3097C58.1478 20.2965 57.9381 20.2972 57.7612 20.3043Z" fill="#51200B"/>
<path d="M38.4788 27.4582C39.2603 29.1654 40.9224 30.0811 42.1909 29.5034C43.4596 28.9257 43.8548 27.0733 43.073 25.3661C42.2916 23.659 40.6294 22.7433 39.361 23.321C38.0922 23.8986 37.6974 25.751 38.4788 27.4582Z" fill="#C4714D"/>
<path d="M48.8104 26.0586C48.7648 25.8057 48.8047 25.5377 48.8973 25.2884C48.9977 25.0413 49.16 24.8179 49.3618 24.639C49.7645 24.2747 50.312 24.0908 50.8524 24.0872C51.3928 24.0904 51.9407 24.2747 52.3433 24.6386C52.5448 24.8179 52.7075 25.0413 52.8079 25.2884C52.9005 25.5377 52.9404 25.8061 52.8944 26.0589C52.8556 25.5455 52.5687 25.1091 52.1871 24.8272C51.8029 24.5438 51.3273 24.3993 50.8521 24.4004C50.3772 24.399 49.9012 24.5438 49.5167 24.8268C49.1354 25.1084 48.8485 25.5451 48.8104 26.0586Z" fill="#542121"/>
<path d="M57.287 26.1093C57.2863 26.0933 57.2842 26.0777 57.2842 26.0617C57.2842 25.2887 57.9602 24.6517 58.8317 24.5644" stroke="#542121" stroke-width="0.7562" stroke-miterlimit="10"/>
<path d="M42.0275 28.1264C42.0275 28.6761 41.8997 29.1938 41.6779 29.6532C40.5042 29.8276 39.1585 28.9427 38.4789 27.4578C38.0553 26.5325 37.9801 25.5664 38.1994 24.7821C38.386 24.7473 38.5772 24.726 38.7733 24.726C40.5704 24.7263 42.0275 26.2488 42.0275 28.1264Z" fill="#A35134"/>
<path d="M44.2931 23.9157C44.2931 23.9157 44.8933 30.7128 49.2027 31.343C51.685 29.2283 56.1881 29.0216 58.8826 30.5392C59.7787 35.3688 59.5946 39.6474 57.0923 39.6126C54.5904 39.5778 42.193 38.4053 42.9958 25.7784C43.1065 22.1905 44.2931 23.9157 44.2931 23.9157Z" fill="#6B2A19"/>
<path d="M56.3473 31.419C56.3473 31.419 54.6524 31.212 53.6492 30.6602C52.6459 30.1081 51.7122 30.4877 52.2657 31.212C52.8193 31.9363 54.5488 32.3503 55.4826 32.2815C56.4167 32.2126 56.8702 31.5017 56.3473 31.419Z" fill="#EFEEE4"/>
<path d="M56.3115 28.5341C56.3115 28.5341 56.6173 29.7242 56.5681 30.2675C55.8426 30.1702 54.781 29.6465 54.5731 29.5172C54.3656 29.388 56.3115 28.5341 56.3115 28.5341Z" fill="#C4714D"/>
<path d="M55.7942 26.8181C55.9636 27.0812 56.1107 27.3585 56.2381 27.6443C56.3659 27.9301 56.4759 28.2245 56.5671 28.5252C56.7454 29.1267 56.8579 29.7605 56.8124 30.4025L56.8002 30.5736L56.6429 30.5306C56.3285 30.4447 56.0163 30.3471 55.713 30.2232C55.5607 30.1642 55.4122 30.0928 55.2673 30.0169C55.1235 29.9398 54.9775 29.8599 54.8579 29.7477C55.1473 29.8933 55.4606 29.97 55.7696 30.052C56.0801 30.1305 56.393 30.1983 56.7066 30.2633L56.5372 30.3911C56.5329 30.0918 56.5094 29.7921 56.4653 29.4931C56.4211 29.1938 56.357 28.897 56.2912 28.5991C56.2189 28.3026 56.1413 28.0061 56.0576 27.7096C55.9722 27.4139 55.8878 27.116 55.7942 26.8181Z" fill="#590A06"/>
<path opacity="0.26" d="M56.4855 16.3087C58.8287 17.3473 59.0306 25.5501 58.8821 30.5391H58.8825C59.7785 35.3688 59.5945 39.6473 57.0922 39.6125C56.3218 39.6019 54.6133 39.4819 52.6415 38.9546C51.1733 37.5205 50.6714 35.0702 49.2021 31.343C46.4805 28.0107 46.3168 17.2756 46.3164 17.2518C48.9052 16.0698 54.2552 15.3199 56.4855 16.3087Z" fill="white"/>
<path opacity="0.27" d="M47.9414 28.4176C47.9414 28.9605 48.8795 29.4008 50.0368 29.4008C51.1942 29.4008 52.1322 28.9605 52.1322 28.4176C52.1322 27.8747 51.1942 27.4344 50.0368 27.4344C48.8795 27.4344 47.9414 27.8744 47.9414 28.4176Z" fill="#AF0808"/>
<path opacity="0.27" d="M58.9088 29.3756C57.9757 29.2761 57.2783 28.8852 57.2783 28.4172C57.2783 27.9478 57.9796 27.5558 58.917 27.4582C58.9223 28.1193 58.9184 28.7624 58.9088 29.3756Z" fill="#AF0808"/>
<path d="M50.8527 24.2436C50.5611 24.2436 50.2842 24.2969 50.0332 24.3917C49.826 24.7045 49.7046 25.0791 49.7046 25.4821C49.7046 25.7878 49.7761 26.0761 49.9 26.3349C50.2094 26.3836 50.5269 26.4127 50.8527 26.4127C51.5768 26.4127 52.2667 26.2867 52.8947 26.0591C52.8954 26.0406 52.8979 26.0221 52.8979 26.0033C52.8979 25.0315 51.9823 24.2436 50.8527 24.2436Z" fill="#51200B"/>
<path d="M127.892 46.7547C127.892 46.7547 126.104 48.2307 124.801 48.7363C123.498 49.242 124.801 46.2881 124.801 46.2881C124.801 46.2881 126.05 47.3764 127.892 46.7547Z" fill="#6D2517"/>
<path opacity="0.51" d="M100.869 78.4271C100.869 78.4271 100.937 88.957 100.528 92.5087C100.118 96.0608 101.947 97.1086 101.947 97.1086C101.947 97.1086 102.205 100.408 102.883 100.704C103.561 101.001 106.635 100.327 106.696 99.953C106.758 99.5788 106.696 91.9445 106.696 91.9445C106.696 91.9445 102.324 78.376 100.869 78.4271Z" fill="#352009"/>
<path d="M94.7427 78.24C94.7427 78.24 103.55 75.7048 106.985 76.2154C110.42 76.726 111.097 80.9896 111.084 86.8603C111.072 92.731 108.379 96.8984 107.343 97.1033C102.725 97.4782 104.26 99.0097 102.725 97.4782C101.189 95.9468 102.896 86.3515 100.869 78.4275C94.743 78.4275 94.743 78.4275 94.743 78.4275" fill="#FFA506"/>
<path d="M100.682 78.5471L98.9579 71.3488H55.9741L58.224 78.5471H100.682Z" fill="#773D15"/>
<path opacity="0.35" d="M100.869 78.4271C100.869 78.4271 104.805 80.6569 105.033 86.3515C105.26 92.046 108.302 80.5695 100.869 78.4271Z" fill="#A36307"/>
<path d="M103.526 98.0133C103.526 98.0133 103.699 100.517 104.196 101.327C107.08 100.777 107.791 100.342 107.791 100.342C107.791 100.342 108.29 98.8715 107.343 97.1029C105.715 96.5817 104.294 97.2904 103.526 98.0133Z" fill="#A36307"/>
<path d="M105.279 101.104C106.011 100.942 106.544 100.796 106.925 100.676C106.759 99.5689 106.468 97.8081 106.183 96.9243C105.518 96.9293 104.915 97.1171 104.414 97.3824C104.516 98.1667 104.775 99.8107 105.279 101.104Z" fill="#FFA506"/>
<path d="M109.325 88.2263C107.873 88.2263 106.697 89.4001 106.697 90.8477C106.697 92.2957 107.874 93.4692 109.325 93.4692C109.519 93.4692 109.707 93.4468 109.889 93.4074C110.383 92.132 110.795 90.574 110.979 88.8118C110.527 88.4461 109.952 88.2263 109.325 88.2263Z" fill="#A36307"/>
<path d="M104.47 89.8755C104.47 88.6939 103.51 87.7355 102.325 87.7355C102.196 87.7355 102.07 87.749 101.947 87.7707C101.983 89.2787 101.981 90.7067 101.989 91.9868C102.099 92.0038 102.21 92.0155 102.325 92.0155C103.509 92.0155 104.47 91.0575 104.47 89.8755Z" fill="#A36307"/>
<path d="M106.45 78.4761C106.45 80.4066 108.019 81.9714 109.955 81.9714C110.256 81.9714 110.547 81.9295 110.825 81.8581C110.412 78.7953 109.415 76.726 107.242 76.2633C106.748 76.8662 106.45 77.6363 106.45 78.4761Z" fill="#A36307"/>
<mask id="mask0_610_8789" style="mask-type:luminance" maskUnits="userSpaceOnUse" x="69" y="112" width="54" height="43">
<path d="M122.9 112.552H69.7036V154.065H122.9V112.552Z" fill="white"/>
</mask>
<g mask="url(#mask0_610_8789)">
<path d="M98.4244 176.903C98.4244 176.903 85.7302 171.523 81.9067 125.276" stroke="#FFA506" stroke-width="1.9222" stroke-miterlimit="10"/>
<path d="M76.829 128.031C82.3064 130.321 83.1587 135.017 83.1587 135.017C83.1587 135.017 78.383 134.72 75.4652 129.56C74.9536 128.655 75.8685 127.63 76.829 128.031Z" fill="#FFA506"/>
<path d="M88.1359 127.016C83.1562 130.244 83.1587 135.017 83.1587 135.017C83.1587 135.017 87.8045 133.873 89.7518 128.278C90.0932 127.296 89.0092 126.45 88.1359 127.016Z" fill="#FFA506"/>
<path d="M77.8266 139.825C83.5069 141.554 84.828 146.141 84.828 146.141C84.828 146.141 80.0466 146.324 76.6237 141.483C76.0238 140.634 76.8305 139.522 77.8266 139.825Z" fill="#FFA506"/>
<path d="M88.9743 137.682C84.3453 141.393 84.8284 146.141 84.8284 146.141C84.8284 146.141 89.3353 144.538 90.7091 138.775C90.9498 137.765 89.786 137.031 88.9743 137.682Z" fill="#FFA506"/>
<path d="M79.3917 149.923C85.1849 151.228 86.8428 155.705 86.8428 155.705C86.8428 155.705 82.0881 156.24 78.3152 151.665C77.6537 150.864 78.3761 149.694 79.3917 149.923Z" fill="#FFA506"/>
<path d="M90.3498 146.963C86.0088 151.006 86.8425 155.705 86.8425 155.705C86.8425 155.705 91.2185 153.774 92.1605 147.926C92.326 146.9 91.111 146.255 90.3498 146.963Z" fill="#FFA506"/>
<path d="M82.7641 116.625C84.8425 122.174 81.9948 126.01 81.9948 126.01C81.9948 126.01 78.9414 122.335 80.7129 116.681C81.0236 115.69 82.3996 115.652 82.7641 116.625Z" fill="#FFA506"/>
<path d="M95.2614 172.715C95.2614 172.715 111.073 157.177 106.449 154.686C101.825 152.195 99.0158 159.476 99.1504 150.069C99.285 140.662 106.153 122.676 97.5601 123.074C88.9677 123.471 83.9392 158.557 95.2614 172.715Z" fill="#61A49A"/>
<g opacity="0.59">
<path d="M97.56 123.074C97.1224 125.034 96.7205 127.001 96.3581 128.976C95.9843 130.948 95.6415 132.925 95.336 134.908C94.7248 138.874 94.2004 142.854 93.8921 146.852C93.718 148.85 93.5966 150.852 93.5361 152.855C93.4962 153.857 93.4948 154.859 93.4845 155.861C93.5012 156.862 93.4962 157.865 93.5386 158.865C93.602 160.868 93.7426 162.87 94.0142 164.856C94.2673 166.844 94.6429 168.818 95.1719 170.756C93.958 166.921 93.4165 162.894 93.2225 158.879C93.1082 156.869 93.11 154.855 93.1623 152.844C93.2114 150.833 93.3193 148.823 93.483 146.819C93.8262 142.811 94.346 138.82 95.0256 134.857C95.7141 130.897 96.5244 126.956 97.56 123.074Z" fill="#305866"/>
</g>
<path d="M101.858 128.391C100.237 130.504 97.1759 135.072 96.649 140.013C96.1833 144.381 98.1118 145.471 99.5411 145.695C100.341 139.995 102.068 133.068 101.858 128.391Z" fill="#407C72"/>
<path d="M88.788 151.744C93.3085 148.491 90.7282 143.706 89.0711 141.43C88.7158 144.74 88.6044 148.251 88.788 151.744Z" fill="#407C72"/>
<path d="M91.2208 117.472C91.8626 118.315 91.6982 119.517 90.853 120.157C90.0082 120.797 88.8028 120.633 88.161 119.79C87.5191 118.948 87.6839 117.745 88.5287 117.105C89.3735 116.465 90.5789 116.629 91.2208 117.472Z" fill="#61A49A"/>
<path d="M104.303 148.893C104.303 148.893 100.486 139.409 109.851 134.025C111.922 139.601 108.457 145.793 104.303 148.893Z" fill="#61A49A"/>
<path d="M109.852 134.025C109.852 134.025 105.442 140.504 104.304 148.893C108.457 145.793 111.922 139.601 109.852 134.025Z" fill="#407C72"/>
<path d="M109.852 134.025C109.475 134.714 109.102 135.402 108.761 136.108C108.406 136.805 108.07 137.512 107.748 138.224C107.105 139.649 106.501 141.09 105.988 142.564C105.451 144.029 105.031 145.532 104.656 147.046L104.409 148.189C104.321 148.57 104.283 148.959 104.216 149.344C104.058 150.112 104.033 150.894 103.93 151.674C103.915 150.105 104.058 148.529 104.361 146.983C104.669 145.439 105.085 143.914 105.619 142.433C106.167 140.957 106.771 139.501 107.477 138.095C108.185 136.691 108.956 135.316 109.852 134.025Z" fill="#305866"/>
</g>
<path d="M73.1514 16.5232C73.1514 16.5232 83.1938 13.2473 87.7459 17.8085C93.0172 13.639 97.1878 11.8278 100.834 11.9666C97.2714 7.1107 76.7665 1.79392 73.1514 16.5232Z" fill="#022435"/>
<path d="M73.1515 16.5232C73.1515 16.5232 74.704 11.3246 82.0725 12.0316C85.5068 8.57891 87.9412 8.9148 91.9864 11.0104C94.5802 9.17152 97.4485 8.9709 100.834 11.9666C99.2128 5.25122 91.813 2.35209 85.7884 2.95783C79.7635 3.56358 72.1134 8.47807 73.1515 16.5232Z" fill="#61A49A"/>
<path d="M85.7881 2.95782C81.4196 5.67303 82.0721 12.0316 82.0721 12.0316C85.5065 8.5789 87.9408 8.91479 91.986 11.0104C91.986 11.0104 92.7571 5.93329 85.7881 2.95782Z" fill="#305866"/>
<path d="M100.834 11.9666L90.8987 30.5402L73.1514 16.5232" stroke="#4F2222" stroke-width="1.0697" stroke-miterlimit="10"/>
<path d="M91.9858 11.0104L90.8986 30.5402L82.0723 12.0316" stroke="#4F2222" stroke-width="1.0697" stroke-miterlimit="10"/>
<path d="M87.7461 17.8089L90.8988 30.5402" stroke="#4F2222" stroke-width="1.0697" stroke-miterlimit="10"/>
<path d="M104.092 27.3073L107.086 42.8784L89.5271 41.9009L86.3398 25.2845L104.092 27.3073Z" fill="#BF7A4B"/>
<path d="M86.34 25.2845L73.7554 32.4352L77.1036 49.1361L89.5272 41.9009L86.34 25.2845Z" fill="#A06338"/>
<path d="M77.1035 49.1362L93.6063 50.7563L107.086 42.8784L89.5272 41.9009L77.1035 49.1362Z" fill="#6D4122"/>
<path d="M81.5861 46.5257L85.0821 44.4897L84.5082 42.6597L81.2188 44.4919L81.5861 46.5257Z" fill="#FFF6E7"/>
<path d="M77.4927 30.3115L78.2143 32.6131L81.9128 30.6531L81.361 28.1133L77.4927 30.3115Z" fill="#FFF6E7"/>
<path d="M79.2466 29.3149L83.4901 45.4168" stroke="#590A06" stroke-width="1.0223" stroke-miterlimit="10"/>
<path d="M81.5864 46.5257L84.1842 46.928L87.6808 44.8967L85.0823 44.4897L81.5864 46.5257Z" fill="#C6B397"/>
<path d="M97.9406 48.2233L96.0029 48.0823L99.6274 45.7421L101.765 45.9885L97.9406 48.2233Z" fill="#C6B397"/>
<path d="M83.4902 45.4168L99.6822 47.2056" stroke="#590A06" stroke-width="1.0223" stroke-miterlimit="10"/>
<path d="M99.9636 29.4328C102.335 30.897 103.109 33.9329 101.693 36.2142C100.277 38.4955 97.2068 39.158 94.8358 37.6941C92.4649 36.2302 91.6906 33.194 93.1064 30.9127C94.5225 28.6314 97.5927 27.9688 99.9636 29.4328Z" fill="#FFF6E7"/>
<path d="M96.0479 30.0261L96.7132 37.2101L99.5698 37.0589L98.752 30.0261H96.0479Z" fill="#61A49A"/>
<path d="M101.068 32.6209L93.7778 32.4448L94.0715 34.6824H101.303L101.068 32.6209Z" fill="#61A49A"/>
<path opacity="0.33" d="M105.848 36.4407L104.092 27.3073L92.2979 25.9634C93.3192 29.7157 96.426 35.8236 105.848 36.4407Z" fill="#FFF6E7"/>
<path d="M43.2099 130.953L16.3938 125.54L21.1233 135.37L14.1133 143.344L40.2853 151.077L43.2099 130.953Z" fill="#4B8C81"/>
<path d="M31.3618 133.309L43.2099 130.953V144.104L31.3618 133.309Z" fill="#305866"/>
<path d="M134.791 130.953L161.607 125.54L156.878 135.37L163.888 143.344L137.716 151.077L134.791 130.953Z" fill="#4B8C81"/>
<path d="M146.639 133.309L134.791 130.953V144.104L146.639 133.309Z" fill="#305866"/>
<path d="M89.0007 142.047C89.0007 142.047 62.3943 142.38 31.3618 133.309C31.3618 152.901 31.3618 150.002 31.3618 150.002C31.3618 150.002 52.7873 158.786 89.0007 158.786C125.214 158.786 146.639 150.002 146.639 150.002C146.639 150.002 146.639 152.902 146.639 133.309C115.607 142.38 89.0007 142.047 89.0007 142.047Z" fill="#61A49A"/>
</g>
<defs>
<clipPath id="clip0_610_8789">
<rect width="178" height="159" fill="white"/>
</clipPath>
</defs>
</svg>
